<svg xmlns="http://www.w3.org/2000/svg" width="45" height="45" fill="none" viewBox="0 0 45 45">
  <path fill="#F9D6BC" d="M26.719 36.563v-8.438a1.406 1.406 0 0 0-1.407-1.406h-5.625a1.406 1.406 0 0 0-1.406 1.406v8.438a1.406 1.406 0 0 1-1.406 1.406H8.437a1.406 1.406 0 0 1-1.406-1.407v-16.26a1.46 1.46 0 0 1 .457-1.036l14.063-12.78a1.406 1.406 0 0 1 1.898 0l14.063 12.78a1.459 1.459 0 0 1 .457 1.037v16.26a1.406 1.406 0 0 1-1.407 1.406h-8.437a1.407 1.407 0 0 1-1.406-1.407Z" opacity=".2"/>
  <path stroke="#F9D6BC" stroke-linecap="round" stroke-linejoin="round" stroke-width="2" d="M26.719 36.563v-8.438a1.406 1.406 0 0 0-1.407-1.406h-5.625a1.406 1.406 0 0 0-1.406 1.406v8.438a1.406 1.406 0 0 1-1.406 1.406H8.437a1.406 1.406 0 0 1-1.406-1.407v-16.26a1.46 1.46 0 0 1 .457-1.036l14.063-12.78a1.406 1.406 0 0 1 1.898 0l14.063 12.78a1.459 1.459 0 0 1 .457 1.037v16.26a1.406 1.406 0 0 1-1.407 1.406h-8.437a1.407 1.407 0 0 1-1.406-1.407Z"/>
</svg>
