<svg width="26" height="30" viewBox="0 0 26 30" fill="none" xmlns="http://www.w3.org/2000/svg">
    <path d="M24.7654 21.9061L24.765 21.9057C24.701 21.8363 24.6314 21.7625 24.557 21.6838C24.0154 21.1103 23.2244 20.2728 22.5719 18.9388C21.8271 17.4162 21.281 15.3037 21.281 12.1875C21.281 8.12752 18.4703 4.87589 14.6507 4.0748L13.856 3.90812V3.09609V1.875C13.856 1.38227 13.463 1 13 1C12.537 1 12.144 1.38227 12.144 1.875V3.09609V3.90812L11.3493 4.0748C7.52966 4.87589 4.71896 8.12752 4.71896 12.1875C4.71896 15.3037 4.17287 17.4162 3.4281 18.9388C2.77556 20.2728 1.98464 21.1103 1.44298 21.6838C1.36868 21.7625 1.29907 21.8362 1.23515 21.9055C1.06472 22.0905 0.998737 22.2952 1.00002 22.4934L24.7654 21.9061ZM24.7654 21.9061C24.935 22.0899 25.0013 22.2948 25 22.4934L25 22.494M24.7654 21.9061L25 22.494M25 22.494C24.9971 22.974 24.6301 23.375 24.137 23.375H1.86298C1.37039 23.375 1.00326 22.9745 1.00002 22.4934L25 22.494ZM15.5279 27.25C15.132 28.2781 14.144 29 13 29C11.856 29 10.868 28.2781 10.4721 27.25H15.5279Z" stroke="#F9D6BC" stroke-width="2"/>
</svg>
