<svg width="26" height="30" viewBox="0 0 26 30" fill="none" xmlns="http://www.w3.org/2000/svg">
    <path d="M19.4286 7.42857C19.4286 10.9794 16.5508 13.8571 13 13.8571C9.44916 13.8571 6.57143 10.9794 6.57143 7.42857C6.57143 3.87773 9.44916 1 13 1C16.5508 1 19.4286 3.87773 19.4286 7.42857ZM13 18.6429C14.5796 18.6429 16.0835 18.3071 17.4442 17.7143H18.2C21.954 17.7143 25 20.7603 25 24.5143V26.9286C25 27.9142 24.1999 28.7143 23.2143 28.7143H2.78571C1.80005 28.7143 1 27.9142 1 26.9286V24.5143C1 20.7603 4.04603 17.7143 7.8 17.7143H8.55651C9.92051 18.3066 11.4191 18.6429 13 18.6429Z" stroke="#F9D6BC" stroke-width="2"/>
</svg>
