<svg xmlns="http://www.w3.org/2000/svg" viewBox="0 0 500 500"><path d="M0 382.4h500v.25H0zm416.78 16.09h33.12v.25h-33.12zm-94.25 2.72h8.69v.25h-8.69zm74.06-12h19.19v.25h-19.19zm-344.13 1.68h43.19v.25H52.46zm52.1 0h6.33v.25h-6.33zm26.91 4.22h93.68v.25h-93.68zM237 337.8H43.91a5.71 5.71 0 0 1-5.7-5.71V60.66a5.71 5.71 0 0 1 5.7-5.66H237a5.71 5.71 0 0 1 5.71 5.71v271.38a5.71 5.71 0 0 1-5.71 5.71ZM43.91 55.2a5.46 5.46 0 0 0-5.45 5.46v271.43a5.46 5.46 0 0 0 5.45 5.46H237a5.47 5.47 0 0 0 5.46-5.46V60.66A5.47 5.47 0 0 0 237 55.2Zm409.4 282.6h-193.1a5.72 5.72 0 0 1-5.71-5.71V60.66a5.72 5.72 0 0 1 5.71-5.66h193.1a5.71 5.71 0 0 1 5.69 5.66v271.43a5.71 5.71 0 0 1-5.69 5.71ZM260.21 55.2a5.47 5.47 0 0 0-5.46 5.46v271.43a5.47 5.47 0 0 0 5.46 5.46h193.1a5.47 5.47 0 0 0 5.46-5.46V60.66a5.47 5.47 0 0 0-5.46-5.46Z" style="fill:#ebebeb"/><path d="M98.71 258.08C100.93 174.94 169.24 108 252.9 108s152 66.94 154.19 150.08h33.07C437.93 156.71 354.79 74.93 252.9 74.93s-185 81.78-187.26 183.15Z" style="fill:#f5f5f5"/><path d="M98.71 258.08C100.93 174.94 169.24 108 252.9 108s152 66.94 154.19 150.08h24.81c-2.23-96.81-81.67-174.88-179-174.88s-176.77 78.07-179 174.88Z" style="fill:#ebebeb"/><path d="M98.71 258.08C100.93 174.94 169.24 108 252.9 108s152 66.94 154.19 150.08h16.54C421.4 165.82 345.68 91.47 252.9 91.47S84.39 165.82 82.17 258.08Z" style="fill:#fafafa"/><path d="M98.71 258.08C100.93 174.94 169.24 108 252.9 108s152 66.94 154.19 150.08h8.27a162.52 162.52 0 0 0-324.93 0ZM73.13 366.9s-4.7-15.73 4.8-18.86 15.14-10.49 14.82-18.81 9.68-16.42 17.18-8.63 6.5-6 16.5-9.34 18.48 4.78 15.74 12.21 7.13 12.08 19 5.76 24.81 5.17 22.31 14.17-.45 10 7 7 20.85 5.5 16.16 16.5-133.51 0-133.51 0Zm251.3 1.5c-5-5-.5-13.5 4.5-14.5s10-9.79 10.27-15.4 9.23-22.82 23.23-12.19 9.75 1.57 19.88-1.42 16.51 5.61 12.07 12.06c0 0 10.17-2.55 14.36 6.95s0 15.4 0 15.4 19.14-.56 17.42 11.27-101.73-2.17-101.73-2.17Z" style="fill:#e0e0e0"/><path d="M443 368.7v13.7H57v-13.7a4.08 4.08 0 0 1 4-4.3h378a4.08 4.08 0 0 1 4 4.3Z" style="fill:#ebebeb"/><path d="M79 364.4h24v18H79zm46 0h23v18h-23zm45 0h24v18h-24zm46 0h23v18h-23zm45 0h23v18h-23zm45 0h24v18h-24zm46 0h23v18h-23zm45 0h24v18h-24z" style="fill:#f5f5f5"/><path d="M121.53 251.14a8.79 8.79 0 0 0-11.35-8.44 18.67 18.67 0 0 0-21.91-21.06A16.32 16.32 0 0 0 58 229.89h-.27a15 15 0 0 0 0 30.08H113a8.81 8.81 0 0 0 8.53-8.83Zm333.3 2.54a8.78 8.78 0 0 0-11.34-8.44 20.22 20.22 0 0 0 .19-2.71 18.67 18.67 0 0 0-22.11-18.35 16.32 16.32 0 0 0-30.26 8.25H391a15 15 0 0 0 0 30.08h55.24a8.8 8.8 0 0 0 8.59-8.83Zm-17.38-94.6a5.63 5.63 0 0 0-5.63-5.63 5.7 5.7 0 0 0-1.61.23 12.22 12.22 0 0 0 .12-1.72A11.92 11.92 0 0 0 418.41 140a12.33 12.33 0 0 0-2.2.2 10.42 10.42 0 0 0-19.32 5.27h-.17a9.61 9.61 0 0 0 0 19.21H432a5.63 5.63 0 0 0 5.45-5.6ZM311.85 86a5.6 5.6 0 0 0-5.6-5.6 5.36 5.36 0 0 0-1.61.24 12.36 12.36 0 0 0 .13-1.73 11.87 11.87 0 0 0-11.87-11.82 12.14 12.14 0 0 0-2.19.2 10.37 10.37 0 0 0-19.23 5.25h-.17a9.56 9.56 0 1 0 0 19.12h35.1a5.6 5.6 0 0 0 5.44-5.66Zm-175.58 50a5.6 5.6 0 0 0-5.6-5.6 5.7 5.7 0 0 0-1.61.23 12.11 12.11 0 0 0 .12-1.72A11.86 11.86 0 0 0 117.32 117a12.14 12.14 0 0 0-2.19.2 10.37 10.37 0 0 0-19.23 5.24h-.17a9.56 9.56 0 0 0 0 19.12h35.09a5.61 5.61 0 0 0 5.45-5.56Z" style="fill:#e0e0e0"/><ellipse cx="250" cy="416.24" rx="193.89" ry="11.32" style="fill:#f5f5f5"/><path d="m326.65 176.72-3.3-4.5a3.4 3.4 0 0 0-.92-3c-1.32-1.5-9.89-.71-11.21-.58s-3.5 5.39-2.21 6.92 9.53 1.79 10.29 1.13l2.6 3.62Z" style="fill:#9f5b53"/><path d="M376.29 165.55c-.26-3.6 2-5 4.88-3.77s5.37-3 9.21-2 2.66 4.83 4.64 5.77 4.21-.19 5.07 4.63-2.3 2.32-.91 6.54 5.53 5.41 2 9-5.93 5-3.16 8-.23 5.88-1.5 6.87 5.51 6.72 3.6 11.86-17.84 9.89-27.67 6.14-12.56-9.43-12-15.89 5.33-8.17 5-10.19-3.47-3.79-1.69-6.76 6.72-3.23 5.14-6.07-1.38-6 .4-7.39 3.44-1 3.11-3.85 3.88-2.89 3.88-2.89Z" style="fill:#263238"/><path d="M367.68 196.71s-22.57.2-26.79-5-14.89-17.6-14.89-17.6l-6 3.74s10.5 23.45 17.09 28.6 26.21 6.21 26.21 6.21Z" style="fill:#27aad2"/><path d="M367.68 196.71s-22.57.2-26.79-5-14.89-17.6-14.89-17.6l-6 3.74s10.5 23.45 17.09 28.6 26.21 6.21 26.21 6.21Z" style="fill:#fff;opacity:.3;isolation:isolate"/><path d="m329.16 403.62 6 1.06 2.46-8.18 2.24-7.5-6.91-2.42-2.01 9.02-1.78 8.02z" style="fill:#e4897b"/><path d="M336.51 404.52c.1-.67-8.11-1.58-8.11-1.58s-5.9 4.2-10.95 4.48-2.86 3.68 2.57 4.64l13.42 2.37c3.85.68 2.02-3.03 3.07-9.91Z" style="fill:#27aad2"/><path d="M323.08 403.94a.77.77 0 0 1-.05-.9.89.89 0 0 1 .53-.47 3.38 3.38 0 0 1 1.86.12c-.6-.47-1.1-1-1.05-1.43 0-.28.25-.48.65-.59a1.27 1.27 0 0 1 1.06.16c1 .65 1.37 2.66 1.38 2.75a.17.17 0 0 1 0 .1v.05a.1.1 0 0 1-.05.06h-.07a12.72 12.72 0 0 1-2.95.48 1.72 1.72 0 0 1-1.31-.33Zm.63-1a.45.45 0 0 0-.28.24c-.14.3-.05.41 0 .44.32.38 1.89.2 3.18-.1-.9-.32-2.26-.78-2.9-.52Zm1.43-1.89c-.12 0-.33.11-.34.22 0 .37 1 1.21 2.13 1.88a3.61 3.61 0 0 0-1.09-2 .81.81 0 0 0-.45-.13 1.07 1.07 0 0 0-.25.07Z" style="fill:#263238"/><path d="m330.91 395.79 6.68.88 2.26-7.59-6.91-2.46-2.03 9.17z" style="opacity:.2;isolation:isolate"/><path d="M369.19 406.19h6.09l1-8.48.9-7.78-7.23-1.18-.4 9.23-.36 8.21z" style="fill:#e4897b"/><path d="M376.58 405.8c0-.67-8.26-.15-8.26-.15s-5.07 5.16-10 6.32-2.18 4.12 3.33 4.12h13.63c3.91 0 1.47-3.34 1.3-10.29Z" style="fill:#27aad2"/><path d="M363.25 407.56a.79.79 0 0 1-.2-.87.88.88 0 0 1 .44-.56 3.39 3.39 0 0 1 1.85-.2c-.67-.36-1.25-.8-1.28-1.23 0-.28.17-.52.54-.69a1.25 1.25 0 0 1 1.07 0c1.12.46 1.81 2.39 1.84 2.47a.2.2 0 0 1 0 .17l-.07.06a10.52 10.52 0 0 1-3.42 1 1.09 1.09 0 0 1-.77-.15Zm.46-1.06a.51.51 0 0 0-.24.29c-.08.33 0 .41.06.44.39.32 1.9-.14 3.11-.65a5.36 5.36 0 0 0-2.93-.08Zm1.08-2.1c-.11.05-.3.16-.3.27 0 .38 1.21 1 2.43 1.48a3.65 3.65 0 0 0-1.42-1.77.78.78 0 0 0-.33-.07.88.88 0 0 0-.38.09Z" style="fill:#263238"/><path d="m369.55 398.17 6.73-.29.9-7.87-7.23-1.21-.4 9.37z" style="opacity:.2;isolation:isolate"/><path d="m330.34 391 9.86 1.74c9.94-24.79 17-45.47 22-62.64 2.69-9.26 4.78-17.49 6.4-24.8l-.45 27v61.28h10c24.34-116.11 7.09-142.65 7.09-142.65l-29.13-5a132.32 132.32 0 0 0-2.44 16.3l-1.31 9.64L341 330.68Z" style="fill:#263238"/><path d="m330.34 391 9.86 1.74c9.94-24.79 17-45.47 22-62.64 2.69-9.26 4.78-17.49 6.4-24.8l-.45 27v61.28h10c24.34-116.11 7.09-142.65 7.09-142.65l-29.13-5a132.32 132.32 0 0 0-2.44 16.3l-1.31 9.64L341 330.68Z" style="fill:#fff;opacity:.2;isolation:isolate"/><path d="m341.74 391.55-12.22-4.05.16 5.19 10.11 3.23 1.95-4.37zm37.74.56-12.74-1.86 1.06 5.09 10.52 1.42 1.16-4.65zm5.79-145.53v4.35l-29.71-2.28v-5.14l29.71 3.07z" style="fill:#263238"/><path d="M362.2 244.85h6.52v4.95h-6.52z" style="fill:#fff" transform="rotate(-175 365.4644 247.311)"/><path d="M375.1 244.78h1.48v7.51h-1.48z" style="fill:#263238" transform="rotate(-177 375.8396 248.5434)"/><path d="M375.1 244.78h1.48v7.51h-1.48z" style="fill:#fff;opacity:.2;isolation:isolate" transform="rotate(-177 375.8396 248.5434)"/><path d="M356.96 242.79h1.48v7.51h-1.48z" style="fill:#263238" transform="rotate(-177 357.6871 246.5545)"/><path d="M356.96 242.79h1.48v7.51h-1.48z" style="fill:#fff;opacity:.2;isolation:isolate" transform="rotate(-177 357.6871 246.5545)"/><path d="M400.09 204.73c-.9 1.83-1.72 3.57-2.48 5.21-.65 1.38-1.25 2.69-1.82 3.94l-1 2.12c-.24.54-.48 1.08-.7 1.6-.79 1.79-1.49 3.46-2.12 5-.37.92-.71 1.81-1 2.67l-.44 1.18c-.68 1.81-1.25 3.49-1.75 5.08-.43 1.38-.81 2.7-1.16 4-.46 1.75-.85 3.45-1.21 5.18-.28 1.33-.54 2.68-.8 4.08-.12.59-.23 1.19-.34 1.8l-29.71-3.09c.1-1.67.21-3.29.33-4.87.1-1.4.2-2.76.31-4.08.16-1.88.32-3.68.48-5.41q.21-2.1.42-4.05c.2-1.9.41-3.69.62-5.39.17-1.42.35-2.76.52-4 .27-2 .54-3.75.79-5.36s.47-2.82.68-4q.41-2.22.72-3.69c1.31-6 2.27-6.13 2.27-6.13s6.68.14 12.41.86h.15a93.45 93.45 0 0 1 11.47 2.52c.49.13 1 .27 1.45.42a87.15 87.15 0 0 1 11.91 4.41Z" style="fill:#27aad2"/><path d="M400.09 204.73c-.9 1.83-1.72 3.57-2.48 5.21-.65 1.38-1.25 2.69-1.82 3.94l-1 2.12c-.24.54-.48 1.08-.7 1.6-.79 1.79-1.49 3.46-2.12 5-.37.92-.71 1.81-1 2.67l-.44 1.18c-.68 1.81-1.25 3.49-1.75 5.08-.43 1.38-.81 2.7-1.16 4-.46 1.75-.85 3.45-1.21 5.18-.28 1.33-.54 2.68-.8 4.08-.12.59-.23 1.19-.34 1.8l-29.71-3.09c.1-1.67.21-3.29.33-4.87.1-1.4.2-2.76.31-4.08.16-1.88.32-3.68.48-5.41q.21-2.1.42-4.05c.2-1.9.41-3.69.62-5.39.17-1.42.35-2.76.52-4 .27-2 .54-3.75.79-5.36s.47-2.82.68-4q.41-2.22.72-3.69c1.31-6 2.27-6.13 2.27-6.13s6.68.14 12.41.86h.15a93.45 93.45 0 0 1 11.47 2.52c.49.13 1 .27 1.45.42a87.15 87.15 0 0 1 11.91 4.41Z" style="fill:#fff;opacity:.6;isolation:isolate"/><path d="M362.22 330.13c2.69-9.26 4.78-17.49 6.4-24.8a229.31 229.31 0 0 0-1.89-25.87s-4.26 33.36-4.51 50.67Z" style="opacity:.2;isolation:isolate"/><path d="M377.83 197.25c-3.51-.51-5.67 1.49-4.05 4.85s2.16 3.86 7.68 2.87 11.94-5.44-3.63-7.72Zm17.96 16.63-1 2.12c-.24.54-.48 1.08-.7 1.6-8.82-2.07-25.35-5.82-35.1-7.28.24-1.49.47-2.82.68-4a300.94 300.94 0 0 1 36.12 7.56Zm-3.79 8.75c-.37.92-.71 1.81-1 2.67l-.44 1.18c-9-2.09-23.69-5.37-32.81-6.77.17-1.42.35-2.76.52-4a309.68 309.68 0 0 1 33.73 6.92Zm-3.22 8.93c-.43 1.38-.81 2.7-1.16 4-8.83-2-22.19-5-30.94-6.39q.21-2.1.42-4.05a312.87 312.87 0 0 1 31.68 6.44Zm-2.37 9.16c-.28 1.33-.54 2.68-.8 4.08-8.53-2-21.08-4.75-29.72-6.16.1-1.4.2-2.76.31-4.08 7.3 1.13 18.62 3.13 30.21 6.16Z" style="fill:#27aad2"/><g style="opacity:.3;isolation:isolate"><path d="M377.83 197.25c-3.51-.51-5.67 1.49-4.05 4.85s2.16 3.86 7.68 2.87 11.94-5.44-3.63-7.72Zm17.96 16.63-1 2.12c-.24.54-.48 1.08-.7 1.6-8.82-2.07-25.35-5.82-35.1-7.28.24-1.49.47-2.82.68-4a300.94 300.94 0 0 1 36.12 7.56Zm-3.79 8.75c-.37.92-.71 1.81-1 2.67l-.44 1.18c-9-2.09-23.69-5.37-32.81-6.77.17-1.42.35-2.76.52-4a309.68 309.68 0 0 1 33.73 6.92Zm-3.22 8.93c-.43 1.38-.81 2.7-1.16 4-8.83-2-22.19-5-30.94-6.39q.21-2.1.42-4.05a312.87 312.87 0 0 1 31.68 6.44Zm-2.37 9.16c-.28 1.33-.54 2.68-.8 4.08-8.53-2-21.08-4.75-29.72-6.16.1-1.4.2-2.76.31-4.08 7.3 1.13 18.62 3.13 30.21 6.16Z" style="fill:#fff"/></g><path d="M376.78 204.16c7.38-.07 9.93-2.92 9.93-2.92-4.1-4.9.63-12 .63-12l-8.95.6a27 27 0 0 1-.09 3.73c-.57 5.32-3 5.09-3 5.09-1.85 2.7 1.48 5.5 1.48 5.5Z" style="fill:#9f5b53"/><path d="M378.39 189.85a27 27 0 0 1-.09 3.73c5.91.7 9-4.33 9-4.33Z" style="opacity:.2;isolation:isolate"/><path d="M386.12 166c-7.56-1.31-10.69 2.31-12.61 10-2.38 9.62-1.43 16.91 8.39 16.48 13.32-.64 16.78-24.34 4.22-26.48Z" style="fill:#9f5b53"/><path d="M378.48 176.38a16.53 16.53 0 0 1-2.75 2.75 2.13 2.13 0 0 0 1.84 1.21Z" style="fill:#892b29"/><path d="M383.21 176.57c-.12.62.11 1.18.52 1.27s.85-.36 1-1-.11-1.18-.52-1.26-.88.42-1 .99Z" style="fill:#263238"/><path d="m384.34 175.66-1.24-.79s.45 1.26 1.24.79Zm-8.79-.74c-.13.61.11 1.18.52 1.26s.85-.35 1-1-.11-1.18-.52-1.27-.88.39-1 1.01Z" style="fill:#263238"/><path d="m376.68 174-1.24-.8s.45 1.28 1.24.8Z" style="fill:#263238"/><path d="M384.19 171.36a4 4 0 0 1 3.08 1.72m-8.51-2.99a3.6 3.6 0 0 0-3.13.09" style="fill:none;stroke:#263238;stroke-linecap:round;stroke-linejoin:round;stroke-width:.72468px"/><path d="M378.16 183.5a18.94 18.94 0 0 1 .42 2.78h.5c2.24.16 3.33-.5 3.86-1.29a3.13 3.13 0 0 0 .44-2.08 10.51 10.51 0 0 1-4.46.59c-.47.03-.76 0-.76 0Z" style="fill:#263238"/><path d="m378.92 183.54.15.82c2.11.15 3.61 0 4.32-.63a3 3 0 0 0 0-.78 10.51 10.51 0 0 1-4.47.59Z" style="fill:#fff"/><path d="M379.08 186.32c2.24.16 3.33-.5 3.86-1.29a7.2 7.2 0 0 0-2.52.31 2.67 2.67 0 0 0-1.34.98Z" style="fill:#de5753"/><path d="M392.17 180.13s-2.46-6.82-1.09-11.53c0 0-13.91-8.72-17.3 6.35 0 0 .89-13.75 13.94-11.79s9.68 21 2 25.46c-.02 0 3.96-4.22 2.45-8.49Z" style="fill:#263238"/><path d="M390.65 181.51a3.37 3.37 0 0 1 4.1-2.41c2.3.67 2.58 5.67-3.45 5.81-.87.02-1.2-.91-.65-3.4Zm12.48 50.06-9-2.77s.2-1.87-.81-2.32-13.9-1.77-14.24-.58.36 8.6 2.38 9.64 10.86 1.44 11.12 1 .74-1 .74-1l9.24 2.85Z" style="fill:#9f5b53"/><path d="M400.09 204.73c7.13 3.24 22.69 31.48 20.32 37.93s-21.89-3.78-21.89-3.78l1.57-9.68 4.46 1.12s-5.58-9.15-10.42-12.72a17.82 17.82 0 0 1 1.66-7.19 23.63 23.63 0 0 1 4.3-5.68Z" style="fill:#27aad2"/><path d="M400.09 204.73c7.13 3.24 22.69 31.48 20.32 37.93s-21.89-3.78-21.89-3.78l1.57-9.68 4.46 1.12s-5.58-9.15-10.42-12.72a17.82 17.82 0 0 1 1.66-7.19 23.63 23.63 0 0 1 4.3-5.68Z" style="fill:#fff;opacity:.3;isolation:isolate"/><path d="m184.19 137.69 4.28-25.69c-2.3-2.28 3-15.32 3-16.73s8.06 4.61 8.2 5.9-2 10.47-4.41 11.79L194 140.39s-5.1 2.16-9.81-2.7Z" style="fill:#e4897b"/><path d="M145.53 158.24s26.61-1.16 31.72-4.86 8.64-35.44 8.64-35.44l13 1.28s-3.47 35.17-10.28 44S155 176.28 155 176.28Z" style="fill:#263238"/><path d="M198.91 119.22s-3.47 35.17-10.28 44c-3.39 4.38-11.77 7.65-19.31 9.82a134.66 134.66 0 0 1-14.32 3.24l-5.16-9.85-4.3-8.19s26.61-1.16 31.72-4.86 8.64-35.44 8.64-35.44Z" style="fill:#fff;opacity:.2;isolation:isolate"/><path d="M169.32 173a134.66 134.66 0 0 1-14.32 3.28l-5.16-9.85c5.16.45 16.04 1.93 19.48 6.57Z" style="opacity:.2;isolation:isolate"/><path d="m84.86 190-13.75-22.16c1.26-3 3.1-13.17 2.51-14.46S63.4 149.22 63 150.43c-1.19 3.22-.56 20.6 2.21 20.9l11.65 24.91s5.49.06 8-6.24Zm65.39 218.64 8.12.86 1.52-17.5-8.11-.86-1.53 17.5zm-40.48-.59h7.86l.65-18.21h-7.87l-.64 18.21z" style="fill:#e4897b"/><path d="M118.72 407.14h-9.55a.68.68 0 0 0-.67.54l-1.55 7a1.16 1.16 0 0 0 .9 1.37 1.07 1.07 0 0 0 .25 0c3.09-.05 5.34-.24 9.22-.24 2.39 0 9.6.25 12.9.25s3.73-3.26 2.38-3.56c-6.06-1.32-10.62-3.15-12.56-4.89a1.89 1.89 0 0 0-1.32-.47Z" style="fill:#263238"/><path d="M119.26 408.23a.19.19 0 0 1-.14-.16.18.18 0 0 1 .09-.18c.28-.18 2.82-1.74 3.69-1.29a.55.55 0 0 1 .32.52 1.07 1.07 0 0 1-.39 1 2.36 2.36 0 0 1-1.51.4 9.65 9.65 0 0 1-2.06-.29Zm.54-.26a3.82 3.82 0 0 0 2.8-.14.75.75 0 0 0 .25-.67c0-.15-.07-.22-.12-.22a.39.39 0 0 0-.24-.05 7.57 7.57 0 0 0-2.69 1.11Z" style="fill:#27aad2"/><path d="M119.21 408.27a.22.22 0 0 1-.09-.17c0-.11.2-2.37 1.11-3.11a1 1 0 0 1 .79-.24.59.59 0 0 1 .6.49c.16.83-1.41 2.56-2.22 3h-.09a.17.17 0 0 1-.1.03Zm1.26-3.06a4.46 4.46 0 0 0-.93 2.46c.81-.61 1.81-1.92 1.71-2.43 0-.05 0-.19-.27-.19h-.09a.67.67 0 0 0-.42.16Z" style="fill:#27aad2"/><path d="M159.22 406.89h-9.55a.68.68 0 0 0-.67.54l-1.55 7a1.16 1.16 0 0 0 .9 1.37 1.07 1.07 0 0 0 .25 0c3.09-.05 5.34-.24 9.22-.24 2.39 0 9.6.25 12.9.25s3.73-3.26 2.38-3.56c-6.06-1.32-10.62-3.15-12.56-4.89a1.89 1.89 0 0 0-1.32-.47Z" style="fill:#263238"/><path d="M159.76 408a.19.19 0 0 1-.14-.16.18.18 0 0 1 .09-.18c.28-.18 2.82-1.74 3.69-1.29a.55.55 0 0 1 .32.52 1.07 1.07 0 0 1-.39 1 2.36 2.36 0 0 1-1.51.4 9.65 9.65 0 0 1-2.06-.29Zm.54-.26a3.82 3.82 0 0 0 2.8-.14.75.75 0 0 0 .25-.67c0-.15-.07-.22-.12-.22a.39.39 0 0 0-.24-.05 7.57 7.57 0 0 0-2.69 1.06Z" style="fill:#27aad2"/><path d="M159.71 408a.22.22 0 0 1-.09-.17c0-.11.2-2.37 1.11-3.11a1 1 0 0 1 .79-.24.59.59 0 0 1 .6.49c.16.83-1.41 2.56-2.22 3h-.09a.17.17 0 0 1-.1.03Zm1.29-3a4.46 4.46 0 0 0-.93 2.46c.81-.61 1.81-1.92 1.71-2.43 0-.05 0-.19-.27-.19h-.09a.67.67 0 0 0-.42.16Z" style="fill:#27aad2"/><path d="m151.78 391.14 8.11.86-.79 9.02-8.12-.85.8-9.03zm-41.37-1.29h7.87l-.34 9.39h-7.87l.34-9.39z" style="opacity:.2;isolation:isolate"/><path d="M113.66 230.11h41.72c4 21.66 16.39 98.33 7.48 166.63L148.73 395s1.31-90.68-11.16-124.2c-1.43 17.94-3.14 37-4.62 47.19-3.63 25-11.4 79.63-11.4 79.63h-14.38s2.94-52.29 4.3-76.86c1.53-26.69 2.13-85.17 2.19-90.65Z" style="fill:#27aad2"/><path d="m164.47 400.03-17.48-2.6.54-4.84 18.18 2.39-1.24 5.05zm-41.19-2.3h-16.96v-5.07l17.6-.33-.64 5.4z" style="fill:#27aad2"/><path d="M137.57 270.79a111.8 111.8 0 0 1 4.66 18c1.17-16-3.5-32.9-3.5-32.9Z" style="opacity:.2;isolation:isolate"/><path d="M106.43 161.62a176.11 176.11 0 0 1 5 25.87c.33 2.68.6 5.31.82 7.86.29 3.24.49 6.36.65 9.32.2 3.75.26 8.18.25 12.54 0 10-.42 19.65-.42 19.65 8 2 31.12.67 43.75-.25a201 201 0 0 0 1.16-36.41 208 208 0 0 0-2.64-23.93 102.87 102.87 0 0 0-2.82-12.52 8 8 0 0 0-6.64-5.51c-1.53-.19-3.3-.38-5.16-.49-.72 0-1.44-.07-2.17-.08a154.22 154.22 0 0 0-17.84 1.24c-1.12.13-2.26.3-3.36.48a102.46 102.46 0 0 0-10.58 2.23Z" style="fill:#263238"/><path d="M156.48 236.62c-12.63.92-35.75 2.25-43.75.25 0 0 .4-9.63.42-19.65 0-4.36-.05-8.79-.25-12.54-.16-3-.36-6.08-.65-9.32-.22-2.55-.49-5.18-.82-7.86-.08-.72-.17-1.45-.27-2.17-.29-2.31-.64-4.61-1-6.9v-.06l3.89-5.6 7.73-11.14s12.86 5.2 18.2-2.22a86.41 86.41 0 0 1 14.4 13.59c.21 1 .41 2.14.61 3.29a208 208 0 0 1 2.65 23.93 201 201 0 0 1-1.16 36.4Z" style="fill:#fff;opacity:.7;isolation:isolate"/><path d="M126.79 174.74a180.2 180.2 0 0 1 20.34.61 3.22 3.22 0 0 1 2.85 3.21 3.22 3.22 0 0 1-3.23 3.23h-19.87a3.23 3.23 0 0 1-3.23-3.06v-.59a3.22 3.22 0 0 1 3.14-3.4Z" style="fill:#263238"/><path d="M106.43 161.62a176.11 176.11 0 0 1 5 25.87c.33 2.68.6 5.31.82 7.86.29 3.24.49 6.36.65 9.32.2 3.75.26 8.18.25 12.54 0 10-.42 19.65-.42 19.65 8 2 31.12.67 43.75-.25a201 201 0 0 0 1.16-36.41 208 208 0 0 0-2.64-23.93 102.87 102.87 0 0 0-2.82-12.52 8 8 0 0 0-6.64-5.51c-1.53-.19-3.3-.38-5.16-.49-.72 0-1.44-.07-2.17-.08a154.22 154.22 0 0 0-17.84 1.24c-1.12.13-2.26.3-3.36.48a102.46 102.46 0 0 0-10.58 2.23Z" style="fill:#fff;opacity:.2;isolation:isolate"/><path d="M141.66 122.89s2.47 8.67-2.7 13.54-7.76-15.13-7.76-15.13Z" style="fill:#263238"/><path d="M120.35 158.86c3.83 3.48 13.22 2.19 13.22 2.19s5.85-1.6 4.62-3.43c-3.45-.57-5.12-2.18-5.81-4.24a10 10 0 0 1-.35-3.94 20.71 20.71 0 0 1 .29-2.2l-11.6-8.59c1.52 5.67 3.38 16.1-.37 20.21Z" style="fill:#e4897b"/><path d="M123.4 144.11c.46 7 6.18 8.88 9 9.27a10 10 0 0 1-.35-3.94Z" style="opacity:.2;isolation:isolate"/><path d="M123.52 147.12a9.83 9.83 0 0 0 11.69 2.32 11 11 0 0 0 5.54-5.85c.14-.35.27-.72.38-1.1 2-6.93 1.35-18.53-6.15-21.93a10.65 10.65 0 0 0-14.13 5.21 10.52 10.52 0 0 0-1 4.85c.15 7.79-.11 12.38 3.67 16.5Z" style="fill:#e4897b"/><path d="M131.59 133.27c-.07.63.29 1.16.71 1.17s.77-.49.8-1.12-.3-1.16-.71-1.17-.77.48-.8 1.12Zm7.17.28c-.07.63.29 1.16.7 1.18s.77-.49.8-1.12-.3-1.16-.71-1.18-.77.57-.79 1.12Z" style="fill:#263238"/><path d="M136.47 133.78a22.41 22.41 0 0 0 2.81 5.54 3.7 3.7 0 0 1-3.07.44Z" style="fill:#de5753"/><path d="M129.46 130.86a.37.37 0 0 0 .37-.13 3 3 0 0 1 2.43-1.15.37.37 0 0 0 .41-.33.38.38 0 0 0-.33-.41 3.7 3.7 0 0 0-3.08 1.42.37.37 0 0 0 0 .52.6.6 0 0 0 .2.08Zm12.47.35a.34.34 0 0 0 .22 0 .36.36 0 0 0 .2-.48 3.69 3.69 0 0 0-2.59-2.2.39.39 0 0 0-.43.31.38.38 0 0 0 .31.42 3 3 0 0 1 2 1.78.37.37 0 0 0 .29.17Zm-12.31-14.39c-.93 0-1.86 0-2.79.07a13.77 13.77 0 0 0-7.48 2.55c-4.9 3.83-2.94 11.76-1.58 16.89 1.81 6.82 5 9.61 5 9.61-2.08-3.09-2.42-9.6-1.37-9.91s1.13.95 1.13.95c2.2-1.81 3.8-6.3 2.67-9.17-.86-2.21 1.47-4.23 3.76-3.43l.69.23 1.07.34Z" style="fill:#263238"/><path d="M116.22 136.87a7.4 7.4 0 0 0 4.09 3.91c2.43.92 3.88-1.19 3.41-3.61-.44-2.15-2.22-5.28-4.76-5.15s-3.69 2.63-2.74 4.85Z" style="fill:#e4897b"/><path d="M135.12 141.31a18.92 18.92 0 0 0-1.29 2.49c-.17 0-.33-.07-.49-.12-2.17-.57-3-1.55-3.24-2.46a3 3 0 0 1 0-1.37 2.61 2.61 0 0 1 .26-.74 10.55 10.55 0 0 0 4 2c.47.13.76.2.76.2Z" style="fill:#263238"/><path d="m134.38 141.1-.4.73c-2-.54-3.41-1.19-3.89-2a2.61 2.61 0 0 1 .26-.74 10.55 10.55 0 0 0 4.03 2.01Z" style="fill:#fff"/><path d="M133.34 143.68c-2.17-.57-3-1.55-3.24-2.46a7.22 7.22 0 0 1 2.29 1.11 2.62 2.62 0 0 1 .95 1.35Z" style="fill:#de5753"/><path d="M116.52 130.84s-1.23-4.76-1-7.5 6.09-8.68 12.48-9.25 8 0 10 2.16 3.42 7.93 3.42 7.93-12.53-2.96-24.9 6.66Z" style="fill:#27aad2"/><path d="M116.52 130.84S128.23 118 139.93 117s13.37 2.48 2.24 9c0 0-6.89-5.74-25.65 4.84Z" style="fill:#27aad2"/><path d="M116.52 130.84S128.23 118 139.93 117s13.37 2.48 2.24 9c0 0-6.89-5.74-25.65 4.84Zm-5.36 54.49c-.29-2.31-.64-4.61-1-6.9v-.06c.34-.57 3.13-5.24 3.41-8.58a20.2 20.2 0 0 1 .48 3c.3 3.21.16 8.35-2.89 12.54Z" style="opacity:.2;isolation:isolate"/><path d="M110.66 181.72c-1.89 6.74-13.16 21.15-22.12 22.38-16.17 2.22-23.68-26.35-23.68-26.35l11.21-7.57s5.65 12.77 8.57 14.73c3.61 2.43 15.5-18.47 21.79-23.29 0 0 9.44 1.57 4.23 20.1Z" style="fill:#263238"/><path d="M110.66 181.72c-1.89 6.74-13.16 21.15-22.12 22.38-16.17 2.22-23.68-26.35-23.68-26.35l11.21-7.57s5.65 12.77 8.57 14.73c3.61 2.43 15.5-18.47 21.79-23.29 0 0 9.44 1.57 4.23 20.1Z" style="fill:#fff;opacity:.2;isolation:isolate"/><path d="m272.71 172 6.93-4.82a22.1 22.1 0 0 1 2.77-4c1.38-1.44 5.73-3.7 6.92-3.56s6.67 4.09 4.52 6.17-7.4 4.7-8.28 4.38l-.88-.32-8.69 7Z" style="fill:#eec1bb"/><path d="M282.41 173.21S263.3 190 256 193.65c-3.58 1.8-12 4.7-19.56 7.16-7.8 2.53-14.75 4.61-14.75 4.61l-1.21-2.25-6.91-12.85s36.1-5 39.27-6.33 24.81-16.83 24.81-16.83Z" style="fill:#263238"/><path d="M236.47 200.81c-7.8 2.53-14.75 4.61-14.75 4.61l-1.21-2.25v-5.92s11.05.35 15.96 3.56Z" style="opacity:.2;isolation:isolate"/><path d="m167.72 258.8-4.76 7a22.92 22.92 0 0 1-1.18 4.7c-.79 1.84-4.05 5.49-5.21 5.78s-7.7-1.46-6.42-4.16 5.25-7 6.19-7h.93l5.65-9.61Z" style="fill:#eec1bb"/><path d="M201.09 151.61c5.36-.07 16.31 9.36 16.31 9.36s3.24 14 6.27 16.87l-2.32 1-1.94-2.94 1.1 4.25s-9.69 4.33-17.68 4.75-11.68-1.19-11.68-1.19l.8-3.56-1.55 3.06-3.28-1.39a104.33 104.33 0 0 0 3.28-16.42c.75-7.81 10.69-13.79 10.69-13.79Z" style="fill:#263238"/><path d="M213.36 369.45c-6.05 7.6-11.48 14.49-16.22 19.52-4.73 5.09-7.17 8.25-7.17 8.25l-4.69-2.69s4.33-6.85 10.2-16.3c5-8 11.11-17.9 16.66-27.07 7.19-11.84 13.42-22.46 15.07-26.26 1.17-2.7-2-13.07-5.52-22.85-3.57-9.95-7.49-19.31-7.49-19.31L227 261.1s5.2 14.41 9.82 29.61c3 10 5.81 20.25 6.74 27.09 1.29 9.55-15.2 32.77-30.2 51.65Z" style="fill:#eec1bb"/><path d="M213.4 369.45c-6 7.6-11.85 14.49-16.17 19.52-.62-3.09-1.24-6.75-1.74-10.74 5-8 11.11-17.9 16.66-27.07a104.34 104.34 0 0 0 1.25 18.29Zm23.4-78.74-15.11 11.34c-3.57-9.95-7.49-19.31-7.49-19.31L227 261.1s5.18 14.41 9.8 29.61Z" style="opacity:.2;isolation:isolate"/><path d="M210.41 408.27 205 409s-7.82-38.47-7.58-70.22a271.17 271.17 0 0 1-6.78-31.95c-1.92-13-2.86-27.48-.33-38.28l18.95 8.53.39 28.42.32 23.69Z" style="fill:#eec1bb"/><path d="m209.61 305.48-19 1.33c-1.92-13-2.86-27.48-.33-38.28l18.95 8.53Z" style="opacity:.2;isolation:isolate"/><path d="M185.59 391.54c.56-.41 5.28 6.66 5.28 6.66s-1.05 7.37 1.08 12.12-2 4.34-5.45-.16L178 399c-2.44-3.17 1.81-3.25 7.59-7.46Z" style="fill:#263238"/><path d="M192.47 403.53c-1.07-.25-1.77-3.3-1.9-3.91v-.22h.07c.1 0 2.1-.66 3.17 0a1.3 1.3 0 0 1 .64.89c.09.42 0 .71-.22.87s-1.1.05-1.81-.28a3.49 3.49 0 0 1 1 1.64.89.89 0 0 1-.18.71.9.9 0 0 1-.69.4Zm.1-.43s.18 0 .39-.23a.46.46 0 0 0 .09-.37c-.09-.7-1.15-1.73-1.89-2.35.33 1.31.91 2.85 1.41 2.95Zm-1.23-3.44c1.14.71 2.4 1.27 2.72 1 .09-.06.06-.28 0-.41a.87.87 0 0 0-.43-.59 2.1 2.1 0 0 0-1-.22 6 6 0 0 0-1.29.22Z" style="fill:#27aad2"/><path d="M203 405.51c0-.69 8.49-.15 8.49-.15s5.22 5.3 10.29 6.5 2.23 4.23-3.43 4.23h-14c-4.01 0-1.49-3.43-1.35-10.58Z" style="fill:#263238"/><path d="M212.47 406.45a.18.18 0 0 1-.07-.05.21.21 0 0 1 0-.06.19.19 0 0 1 0-.07v-.09c0-.02.74-2.07 1.89-2.55a1.3 1.3 0 0 1 1.09 0c.39.19.58.43.56.72s-.63.89-1.32 1.26a3.45 3.45 0 0 1 1.9.21.89.89 0 0 1 .46.57.81.81 0 0 1-.21.9 1.14 1.14 0 0 1-.75.21 10.41 10.41 0 0 1-3.55-1.05Zm.77-.14c1.25.53 2.81 1 3.21.67 0 0 .14-.12.05-.45a.5.5 0 0 0-.24-.3 2.16 2.16 0 0 0-1-.18 10.15 10.15 0 0 0-2.02.26Zm1.18-2.26a3.61 3.61 0 0 0-1.45 1.82c1.25-.48 2.46-1.14 2.49-1.52 0-.12-.19-.23-.31-.28a.92.92 0 0 0-.39-.09.83.83 0 0 0-.34.07ZM218 296.72 238.51 286c-6.44-19.58-12.25-30.69-12.25-30.69-20.14 3.45-18.3 19.37-18.3 19.37s5.13 10.6 10.04 22.04Z" style="fill:#27aad2"/><path d="M216.71 293.7c.44 1 .87 2 1.31 3l20.49-10.7c-6.44-19.58-12.25-30.69-12.25-30.69-12.43 2.14-16.49 9-17.78 14a16.52 16.52 0 0 0-.53 5.4s4.26 8.77 8.76 18.99Z" style="fill:#fff;opacity:.2;isolation:isolate"/><path d="M216.71 293.7c-4.5-10.22-8.76-19-8.76-19a16.52 16.52 0 0 1 .53-5.4 6.4 6.4 0 0 1 2.1-.89s5.48 8.59 6.13 25.29Z" style="opacity:.2;isolation:isolate"/><path d="m211.68 301.14-.68-32.77 16.24-4.74s-1.27-15-3.17-22.45c0 0-26.38-6.57-30.4 2.38 0 0 0 .14-.06.19l-.06.08s-7.58 13.33-5.32 57.31Z" style="fill:#27aad2"/><path d="m211.68 301.14-.68-32.77 16.24-4.74s-1.27-15-3.17-22.45c0 0-26.38-6.57-30.4 2.38 0 0 0 .14-.06.19l-.06.08s-7.58 13.33-5.32 57.31Z" style="fill:#fff;opacity:.2;isolation:isolate"/><path d="M193.35 239.02v4.47l30.32-2.34v-5.29l-30.32 3.16z" style="fill:#27aad2"/><path d="M202.3 237.17h1.52v7.73h-1.52z" style="fill:#27aad2" transform="rotate(-3 202.7805 240.7294)"/><path d="M210.39 237.24h6.71v5.08h-6.71z" style="fill:#fff" transform="rotate(-5 213.6163 239.7116)"/><path d="M220.96 235.13h1.52v7.73h-1.52z" style="fill:#27aad2" transform="rotate(-3 221.4186 238.6628)"/><path d="M202.3 237.17h1.52v7.73h-1.52z" style="fill:#fff;opacity:.2;isolation:isolate" transform="rotate(-3 202.7805 240.7294)"/><path d="M220.96 235.13h1.52v7.73h-1.52z" style="fill:#fff;opacity:.2;isolation:isolate" transform="rotate(-3 221.4186 238.6628)"/><path d="m224 236.4-30.51 2.6a126.58 126.58 0 0 0-1.47-14.1 128.07 128.07 0 0 0-3.57-14.89c-.87-3-1.9-6.22-3.13-9.93q-.87-2.66-1.91-5.63a89 89 0 0 1 12.68-3.06 97.17 97.17 0 0 1 13.72-1.39c5.94 0 12.77.62 12.77.62s1 .24 1.58 6.53c.56 5.9 1.11 17.73-.16 39.25Z" style="fill:#263238"/><path d="m186.25 299.8 26.76-.24-.47 4.03-25.11-.24-1.18-3.55zm30.08-3.32 22.26-12.08 1.19 3.55-21.56 10.66-1.89-2.13z" style="fill:#27aad2"/><path d="M207.29 196.73c-7.53-1-9.8-4.19-9.8-4.19 3.08-2.89 2.52-7.18 1.74-9.85a15.41 15.41 0 0 0-.93-2.46l9.07 1.69a26 26 0 0 0-.36 3.82 11.91 11.91 0 0 0 .26 2.81c.62 2.71 2.16 2.74 2.16 2.74 1.57 2.98-2.14 5.44-2.14 5.44Z" style="fill:#eec1bb"/><path d="M207 185.74a11.91 11.91 0 0 0 .26 2.81c-3.6-.48-6.33-3.36-8-5.86a15.41 15.41 0 0 0-.93-2.46l9.07 1.69a26 26 0 0 0-.4 3.82Z" style="opacity:.2;isolation:isolate"/><path d="M205.52 156.82c7.88.29 10.26 4.61 10.54 12.76.34 10.18-2.17 17.31-11.95 14.77-13.28-3.44-11.69-28.01 1.41-27.53Z" style="fill:#eec1bb"/><path d="M211 169a16.82 16.82 0 0 0 2.17 3.35 2.16 2.16 0 0 1-2.11.82Z" style="fill:#d4827d"/><path d="M206.3 162.67a4.1 4.1 0 0 0-3.46 1.07m9.16-1.19a3.7 3.7 0 0 1 3.12.77" style="fill:none;stroke:#263238;stroke-linecap:round;stroke-linejoin:round;stroke-width:.707962px"/><path d="M209.78 176.17a19.46 19.46 0 0 0-1 2.71l-.5-.07c-2.29-.32-3.24-1.22-3.61-2.12a3 3 0 0 1-.17-1.4 3.11 3.11 0 0 1 .17-.79 10.63 10.63 0 0 0 4.36 1.55c.44.09.75.12.75.12Z" style="fill:#263238"/><path d="m209 176.05-.32.79c-2.16-.3-3.63-.8-4.21-1.55a3.11 3.11 0 0 1 .17-.79 10.63 10.63 0 0 0 4.36 1.55Z" style="fill:#fff"/><path d="M208.25 178.81c-2.29-.32-3.24-1.22-3.61-2.12a7.57 7.57 0 0 1 2.47.85 2.88 2.88 0 0 1 1.14 1.27Z" style="fill:#de5753"/><path d="M196.41 169.79s3.93-6.34 3.55-11.36c0 0 15.86-5.81 16 10.08 0 0 2-14-11.5-14.84s-14.22 19-7.44 25.18c.05 0-3.02-5.09-.61-9.06Z" style="fill:#263238"/><path d="M197.63 171.5a3.45 3.45 0 0 0-3.6-3.3c-2.45.18-3.8 5.15 2.23 6.58.86.22 1.39-.63 1.37-3.28Z" style="fill:#eec1bb"/><path d="M201.09 151.61c4.26-1.18 15.63-1.34 18.32 10.42l-1.58.79a25.18 25.18 0 0 0-8.53-2.52 19.67 19.67 0 0 0-2.21-3.16 17.34 17.34 0 0 1 0 3s-7.42 1.08-10.74 4.1c-5.21 4.74-5.52 7.74-5.52 7.74s-3.62-16.51 10.26-20.37Z" style="fill:#263238"/><path d="M200.46 152.48s15.24-5.29 20 9.16" style="fill:none;stroke:#263238;stroke-linecap:round;stroke-linejoin:round;stroke-width:.488465px"/><path d="M204 168.13s1.85-1.57 2.72.54a5.55 5.55 0 0 0-2.72-.54Zm8.78 1.17s1-2.14 2.38-.63a5.22 5.22 0 0 0-2.38.63Z" style="fill:#263238"/><path d="M215.78 201.16h4.42a1 1 0 0 1 .88 1.38l-1.83 3.94a1 1 0 0 1-1.69.12l-2.6-3.93a1 1 0 0 1 .82-1.51Z" style="fill:#fff;opacity:.3;isolation:isolate"/><path d="M192 224.94a128.07 128.07 0 0 0-3.57-14.89l1.66-3a37.38 37.38 0 0 1 1.91 17.89Z" style="opacity:.2;isolation:isolate"/><path d="M183.41 194.49c-2.86 3.62-4.15 29.57-9.94 40.09s-13.93 24.8-13.93 24.8l5.94 5.16s18.29-21.36 21.21-29.57 3.71-19.12 3.71-19.12c1.6-14.69-6.99-21.36-6.99-21.36Z" style="fill:#263238"/><path d="M185.59 391.54c.56-.41 5.28 6.66 5.28 6.66s-1.05 7.37 1.08 12.12-2 4.34-5.45-.16L178 399c-2.44-3.17 1.81-3.25 7.59-7.46ZM203 405.51c0-.69 8.49-.15 8.49-.15s5.22 5.3 10.29 6.5 2.23 4.23-3.43 4.23h-14c-4.01 0-1.49-3.43-1.35-10.58Z" style="fill:#fff;opacity:.6;isolation:isolate"/><path d="M244.94 213.73c5.14 2.07 9.49-3.08 9.69-9.21 0 0 4.69-3 10-6.26a139.24 139.24 0 0 1 12.37-6.92 4.6 4.6 0 0 0 1.75-1.43c4.1-5.32 2.21-20.65 2.21-20.65-9.5 1.06-28.48 18.27-36.79 26.57s-4.37 15.82.77 17.9Z" style="fill:#27aad2"/><path d="M264.63 198.26a139.24 139.24 0 0 1 12.37-6.92 4.6 4.6 0 0 0 1.75-1.43l-6.66-5.91s-5.93 7.71-7.46 14.26Z" style="opacity:.2;isolation:isolate"/><path d="m276.22 408.64-8.11.86-1.53-17.5 8.12-.86 1.52 17.5zm40.48-.59h-7.86l-.65-18.21h7.87l.64 18.21z" style="fill:#ebb376"/><path d="M307.75 407.14h9.55a.68.68 0 0 1 .67.54l1.55 7a1.16 1.16 0 0 1-.9 1.37 1 1 0 0 1-.25 0c-3.09-.05-5.34-.24-9.22-.24-2.39 0-9.6.25-12.9.25s-3.73-3.26-2.38-3.56c6.06-1.32 10.62-3.15 12.56-4.89a1.89 1.89 0 0 1 1.32-.47Z" style="fill:#263238"/><path d="M305.15 408.52a2.38 2.38 0 0 1-1.51-.4 1.09 1.09 0 0 1-.39-1 .55.55 0 0 1 .32-.52c.87-.45 3.41 1.11 3.69 1.29a.17.17 0 0 1 .09.18.19.19 0 0 1-.14.16 9.56 9.56 0 0 1-2.06.29Zm-1.15-1.63a.4.4 0 0 0-.24.05c-.05 0-.11.07-.12.22a.77.77 0 0 0 .25.67 3.82 3.82 0 0 0 2.8.14 7.5 7.5 0 0 0-2.69-1.08Z" style="fill:#27aad2"/><path d="M307.16 408.24h-.09c-.81-.44-2.38-2.17-2.22-3a.61.61 0 0 1 .6-.49 1 1 0 0 1 .79.24c.91.74 1.1 3 1.11 3.11a.2.2 0 0 1-.09.17.17.17 0 0 1-.1-.03Zm-1.58-3.19h-.09c-.24 0-.26.14-.27.19-.1.51.9 1.82 1.71 2.43a4.38 4.38 0 0 0-.93-2.46.67.67 0 0 0-.42-.16Z" style="fill:#27aad2"/><path d="M267.25 406.89h9.55a.68.68 0 0 1 .67.54l1.55 7a1.16 1.16 0 0 1-.9 1.37 1 1 0 0 1-.25 0c-3.09-.05-5.34-.24-9.22-.24-2.39 0-9.6.25-12.9.25s-3.73-3.26-2.38-3.56c6.06-1.32 10.62-3.15 12.56-4.89a1.89 1.89 0 0 1 1.32-.47Z" style="fill:#263238"/><path d="M264.65 408.27a2.38 2.38 0 0 1-1.51-.4 1.09 1.09 0 0 1-.39-1 .55.55 0 0 1 .32-.52c.87-.45 3.41 1.11 3.69 1.29a.17.17 0 0 1 .09.18.19.19 0 0 1-.14.16 9.56 9.56 0 0 1-2.06.29Zm-1.17-1.63a.4.4 0 0 0-.24.05c-.05 0-.11.07-.12.22a.77.77 0 0 0 .25.67 3.82 3.82 0 0 0 2.8.14 7.5 7.5 0 0 0-2.69-1.08Z" style="fill:#27aad2"/><path d="M266.66 408h-.09c-.81-.44-2.38-2.17-2.22-3a.61.61 0 0 1 .6-.49 1 1 0 0 1 .79.24c.91.74 1.1 3 1.11 3.11a.2.2 0 0 1-.09.17.17.17 0 0 1-.1-.03Zm-1.58-3.19H265c-.24 0-.26.14-.27.19-.1.51.9 1.82 1.71 2.43a4.38 4.38 0 0 0-.93-2.46.67.67 0 0 0-.43-.17Z" style="fill:#27aad2"/><path d="m274.7 391.14-8.12.86.8 9.02 8.11-.85-.79-9.03zm41.36-1.29h-7.87l.34 9.39h7.87l-.34-9.39z" style="opacity:.2;isolation:isolate"/><path d="M312.81 238.11h-41.72c-4 21.66-16.38 90.33-7.48 158.63l14.13-1.74s-1.31-82.68 11.16-116.2c1.44 17.94 3.14 29 4.62 39.19 3.63 25 11.4 79.63 11.4 79.63h14.38s-2.94-52.29-4.3-76.86c-1.49-26.69-2.13-77.17-2.19-82.65Z" style="fill:#263238"/><path d="m262 400.03 17.48-2.6-.53-4.84-18.19 2.39 1.24 5.05zm41.19-2.3h16.96v-5.07l-17.6-.33.64 5.4z" style="fill:#27aad2"/><path d="M288.9 278.79a111.8 111.8 0 0 0-4.66 18c-1.17-16 3.5-32.9 3.5-32.9Z" style="opacity:.2;isolation:isolate"/><path d="M320 172.62a176.11 176.11 0 0 0-5 25.87c-.33 2.68-.6 5.31-.82 7.86-.29 3.24-.49 6.36-.65 9.32-.2 3.75-.26 8.18-.25 12.54 0 10 .42 16.65.42 16.65-8 2-31.12.67-43.75-.25a169.71 169.71 0 0 1-1.16-33.41 208 208 0 0 1 2.65-23.93 102.87 102.87 0 0 1 2.82-12.52 8 8 0 0 1 6.64-5.51c1.53-.19 3.3-.38 5.16-.49.72 0 1.44-.07 2.17-.08a154.22 154.22 0 0 1 17.84 1.24c1.12.13 2.26.3 3.36.48a102.46 102.46 0 0 1 10.57 2.23Z" style="fill:#27aad2"/><path d="M306.12 169.86c-3.83 3.48-13.21 2.19-13.21 2.19s-5.86-1.6-4.63-3.43c3.45-.57 5.12-2.18 5.81-4.24a10 10 0 0 0 .35-3.94 20.71 20.71 0 0 0-.29-2.2l.71-.52 2.42-1.8 8.47-6.27a57.91 57.91 0 0 0-1.67 8.92 22.2 22.2 0 0 0 .55 8.6 7.38 7.38 0 0 0 1.49 2.69Z" style="fill:#ebb376"/><path d="M315.31 196.33c.29-2.31.64-4.61 1-6.9v-.06c-.34-.57-3.13-5.24-3.41-8.58a20.2 20.2 0 0 0-.48 3c-.3 3.21-.16 8.35 2.89 12.54Z" style="opacity:.2;isolation:isolate"/><path d="M336.05 220.62 323 246.79c-3.58.56-7.38 15.88-8.26 17.19s10.36 1.12 11.33 0 5.12-10.8 3.76-13.62l16.91-25.78s-3.22-5.27-10.69-3.96Z" style="fill:#ebb376"/><path d="M320 172.62c1.73-.19 31.14 25.87 30.74 40s-4.35 14.57-4.35 14.57l-11-2.28s2.45-12.08-.19-14.8-19.4-17.44-19.4-17.44-5.73-18.95 4.2-20.05Z" style="fill:#27aad2"/><path d="M278.73 183.68s18.6.84 26.14 2.66c0 0-3.26 26.75-3.2 34.74 0 0-21.17-.93-27.17-1.21 0 0 2.33-28.57 4.23-36.19Z" style="fill:#fff;opacity:.6;isolation:isolate"/><path d="m248.65 201.16 25.9 3.06c2.17-2.4 15.45 2.26 16.86 2.25s-4.23 8.27-5.51 8.47-10.55-1.47-12-3.86h-27.5s-2.4-4.99 2.25-9.92Z" style="fill:#ebb376"/><path d="M304.63 167.17c-6.05.66-8.72-5.65-9.77-9.45l2.42-1.8a72.42 72.42 0 0 1 6.8 2.65 22.2 22.2 0 0 0 .55 8.6Z" style="opacity:.2;isolation:isolate"/><path d="M315 136.56s1.33 8.92-4.42 13.08-5.75-16-5.75-16Z" style="fill:#263238"/><path d="M293.93 158.25a9.83 9.83 0 0 0 11.29 3.81 11 11 0 0 0 6.25-5.09 11.2 11.2 0 0 0 .52-1c2.83-6.62 3.73-18.2-3.27-22.54a10.66 10.66 0 0 0-16.28 8c-.86 7.73-1.73 12.24 1.49 16.82Z" style="fill:#ebb376"/><path d="M303.72 145.56c-.15.61.13 1.18.55 1.25s.82-.38.93-1-.14-1.19-.55-1.26-.82.38-.93 1.01Zm7.06 1.2c-.14.62.15 1.19.55 1.26s.83-.39.94-1-.15-1.19-.55-1.25-.83.4-.94.99Z" style="fill:#263238"/><path d="M308.49 146.69a22.24 22.24 0 0 0 2.07 5.86 3.65 3.65 0 0 1-3.1 0Z" style="fill:#d58745"/><path d="M301.92 142.9a.38.38 0 0 0 .38-.09 3 3 0 0 1 2.56-.82.37.37 0 0 0 .44-.28.36.36 0 0 0-.27-.44 3.7 3.7 0 0 0-3.24 1 .37.37 0 0 0 0 .52.56.56 0 0 0 .13.11Zm12.32 1.95a.38.38 0 0 0 .21.05.38.38 0 0 0 .26-.46 3.73 3.73 0 0 0-2.29-2.52.36.36 0 0 0-.46.25.38.38 0 0 0 .25.46 3 3 0 0 1 1.79 2 .39.39 0 0 0 .24.22ZM303.88 129c-.92-.13-1.84-.24-2.77-.28a13.78 13.78 0 0 0-7.75 1.55c-5.35 3.17-4.43 11.29-3.74 16.55.92 7 3.67 10.17 3.67 10.17-1.67-3.34-1.17-9.84-.09-10s1 1.08 1 1.08c2.42-1.5 4.59-5.75 3.84-8.75-.58-2.3 2-4 4.16-2.92l.66.32 1 .48Z" style="fill:#263238"/><path d="M288 147.14a7.37 7.37 0 0 0 3.55 4.41c2.29 1.23 4-.68 3.85-3.14-.16-2.18-1.52-5.52-4.05-5.71s-3.99 2.12-3.35 4.44Z" style="fill:#ebb376"/><path d="M289.68 135.38s-1-7.94 8.24-9.27 17.25-3.4 17.25-3.4-.14 4.67-1.84 6c0 0 3.32.15 5.3-1.17 0 0-.53 4.09-1.72 5.54l1.72-1.32a7.49 7.49 0 0 1-5.89 6.41c-5.45 1.24-15.63-2.79-15.63-2.79Zm17.54 19.82a19.47 19.47 0 0 0-1.61 2.31c-.15-.06-.31-.11-.46-.18-2.08-.84-2.77-1.92-2.9-2.86a2.91 2.91 0 0 1 .17-1.36 2.87 2.87 0 0 1 .35-.7 10.78 10.78 0 0 0 3.74 2.5c.43.19.71.29.71.29Z" style="fill:#263238"/><path d="m306.51 154.91-.49.66c-2-.79-3.23-1.62-3.6-2.46a2.87 2.87 0 0 1 .35-.7 10.78 10.78 0 0 0 3.74 2.5Z" style="fill:#fff"/><path d="M305.15 157.33c-2.08-.84-2.77-1.92-2.9-2.86a7.16 7.16 0 0 1 2.13 1.39 2.81 2.81 0 0 1 .77 1.47Z" style="fill:#de5753"/></svg>