<?xml version="1.0" standalone="no"?>
<!DOCTYPE svg PUBLIC "-//W3C//DTD SVG 20010904//EN"
 "http://www.w3.org/TR/2001/REC-SVG-20010904/DTD/svg10.dtd">
<svg version="1.0" xmlns="http://www.w3.org/2000/svg"
 width="700.000000pt" height="700.000000pt" viewBox="0 0 700.000000 700.000000"
 preserveAspectRatio="xMidYMid meet">
<metadata>
Created by potrace 1.14, written by Peter Selinger 2001-2017
</metadata>
<g transform="translate(0.000000,700.000000) scale(0.100000,-0.100000)"
fill="#000000" stroke="none">
<path d="M717 6984 c-178 -32 -322 -109 -457 -244 -102 -102 -152 -177 -200
-302 -64 -165 -60 15 -60 -2938 0 -2953 -4 -2773 60 -2938 48 -125 98 -200
200 -302 102 -102 177 -152 302 -200 165 -64 -15 -60 2938 -60 2950 0 2775 -4
2936 59 120 47 212 107 305 200 93 93 153 185 200 305 63 161 59 -14 59 2936
0 2953 4 2773 -60 2938 -48 125 -98 200 -200 302 -102 102 -177 152 -302 200
-165 64 16 60 -2947 59 -2268 -1 -2708 -3 -2774 -15z m2518 -3484 l0 -2185
-762 -3 -763 -2 0 2190 0 2190 763 -2 762 -3 0 -2185z m1378 2164 c166 -38
295 -111 422 -238 170 -171 255 -375 255 -609 0 -249 -88 -458 -266 -632 -410
-400 -1110 -291 -1373 215 -77 146 -102 251 -102 417 0 246 88 453 267 624 84
80 143 121 237 164 174 80 372 101 560 59z"/>
</g>
</svg>
