<svg xmlns="http://www.w3.org/2000/svg" width="390" height="2846" fill="none" viewBox="0 0 390 2846">
  <path fill="#A9D5E3" d="M0 0h390l-2 2845H1L0 0Z"/>
  <path fill="#94CBDC" d="M390 891V131.712C282.5 107.227 132 352.994 0 378.548V891h390Z"/>
  <path fill="#67B5CD" d="M391 891V594.576C306.283 476.535 182.968 564.008 0 512v379h391Z"/>
  <path fill="#7ABED3" d="M390 891.084V691.883c-170-85.495-207.5 50.487-390 10.92v188.281h390Z"/>
  <path fill="#7ABED3" d="M0 887h390v916H0z"/>
  <path fill="#94CBDC" d="M0 1273V776c106.952-24.485 258.673 221.446 390 247v250H0Z"/>
  <path fill="#67B5CD" d="M-.005 1387v-148.42C84.279 1120.53 207.966 1208.01 390 1156v231H-.005Z"/>
  <path fill="#7ABED3" d="M0 1535v-199c169.133-85.5 208.431 50.29 390 10.72V1535H0Z"/>
  <path fill="#94CBDC" d="M390 2201v-759.29c-107.5-24.48-258 221.28-390 246.84V2201h390Z"/>
  <path fill="#67B5CD" d="M391 2201v-296.42c-84.717-118.05-208.032-30.57-391-82.58v379h391Z"/>
  <path fill="#7ABED3" d="M390 2356v-354.12c-170-85.49-207.5 50.49-390 10.92V2356h390Z"/>
  <path fill="#94CBDC" d="M0 2845v-759c107.224-24.49 258.338 220.99 390 246.55V2845H0Z"/>
  <path fill="#7ABED3" d="M-.005 2845v-296.42C84.279 2430.53 207.966 2518.01 390 2466v379H-.005Z"/>
  <path fill="#A9D5E3" d="M0 2845v-199c169.133-85.49 208.431 50.37 390 10.8v188.28L0 2845Z"/>
</svg>
