<svg xmlns="http://www.w3.org/2000/svg" width="390" height="2846" fill="none" viewBox="0 0 390 2846">
  <path fill="#A9D5E3" d="M1 0h387v2845H1z"/>
  <path fill="#94CBDC" d="M390 891V131.712C282.5 107.227 132 352.994 0 378.548V891h390Z"/>
  <path fill="#67B5CD" d="M391 891V594.576C306.283 476.535 182.968 564.008 0 512v379h391Z"/>
  <path fill="#7ABED3" d="M390 891.084V691.883c-170-85.495-207.5 50.487-390 10.92v188.281h390Z"/>
  <path fill="#7ABED3" d="M0 887h390v916H0z"/>
  <path fill="#94CBDC" d="M.99 1535V775.712C107.94 751.227 257.673 996.994 389 1022.55V1535H.99Z"/>
  <path fill="#67B5CD" d="M-.005 1535v-296.42C84.279 1120.53 206.966 1208.01 389 1156v379H-.005Z"/>
  <path fill="#7ABED3" d="M.99 1535.08v-199.2c169.132-85.49 206.441 50.49 388.01 10.92v188.28H.99Z"/>
  <path fill="#94CBDC" d="M390 2201v-759.29c-107.5-24.48-258 221.28-390 246.84V2201h390Z"/>
  <path fill="#67B5CD" d="M391 2201v-296.42c-84.717-118.05-208.032-30.57-391-82.58v379h391Z"/>
  <path fill="#7ABED3" d="M390 2356v-354.12c-170-85.49-207.5 50.49-390 10.92V2356h390Z"/>
  <path fill="#94CBDC" d="M1 2845v-759.29c107.224-24.48 257.338 221.28 389 246.84V2845H1Z"/>
  <path fill="#7ABED3" d="M-.005 2845v-296.42C84.279 2430.53 206.966 2518.01 389 2466v379H-.005Z"/>
  <path fill="#A9D5E3" d="M.99 2845.08v-199.2c169.132-85.49 206.441 50.49 388.01 10.92v188.28H.99Z"/>
</svg>
